<?xml version="1.0" standalone="no"?>
<!DOCTYPE svg PUBLIC "-//W3C//DTD SVG 20010904//EN"
 "http://www.w3.org/TR/2001/REC-SVG-20010904/DTD/svg10.dtd">
<svg version="1.0" xmlns="http://www.w3.org/2000/svg"
 width="1135.000000pt" height="1135.000000pt" viewBox="0 0 1135.000000 1135.000000"
 preserveAspectRatio="xMidYMid meet">
<metadata>
Created by potrace 1.11, written by Peter Selinger 2001-2013
</metadata>
<g transform="translate(0.000000,1135.000000) scale(0.100000,-0.100000)"
fill="#000000" stroke="none">
<path d="M3659 10206 c-2 -2 -24 -6 -49 -10 -71 -9 -100 -15 -174 -37 -81 -24
-266 -108 -266 -120 0 -5 -4 -9 -10 -9 -37 0 -268 -224 -1383 -1340 -1328
-1329 -1302 -1302 -1381 -1471 -27 -57 -87 -229 -81 -229 2 0 -1 -15 -6 -32
-25 -88 -30 -274 -12 -411 34 -242 146 -469 322 -647 182 -183 404 -297 655
-335 93 -13 261 -14 351 0 165 24 370 109 510 210 108 78 2496 2465 2580 2579
92 125 180 319 199 441 4 21 8 40 10 44 2 3 7 35 10 71 65 607 -322 1144 -919
1277 -63 13 -345 29 -356 19z"/>
<path d="M7080 10194 c-451 -82 -815 -410 -932 -839 -44 -162 -44 -88 -42
-3700 0 -1892 4 -3460 8 -3485 43 -269 150 -482 332 -665 95 -96 178 -157 294
-217 78 -40 186 -82 235 -92 11 -3 40 -9 65 -14 107 -24 267 -31 379 -16 471
62 873 419 984 874 9 36 20 79 24 95 4 17 9 1598 10 3515 2 3797 6 3564 -53
3745 -116 358 -400 643 -755 758 -42 14 -92 28 -110 31 -19 3 -45 8 -59 12
-54 13 -306 12 -380 -2z"/>
<path d="M10069 10206 c-2 -2 -30 -7 -62 -11 -139 -15 -315 -82 -454 -171
-128 -82 -215 -165 -313 -296 -95 -127 -183 -331 -205 -475 -3 -21 -8 -50 -10
-63 -7 -33 -7 -224 -1 -279 31 -256 143 -493 317 -671 119 -121 204 -183 345
-250 168 -81 348 -116 545 -107 68 3 135 8 149 11 14 3 39 8 55 12 138 27 326
114 452 209 241 182 413 477 452 775 12 96 5 293 -14 385 -64 305 -247 575
-500 740 -148 96 -261 142 -450 180 -36 8 -299 17 -306 11z"/>
<path d="M10069 6846 c-2 -2 -24 -6 -49 -9 -155 -19 -322 -80 -465 -171 -235
-150 -422 -402 -494 -666 -11 -41 -23 -93 -26 -115 -3 -22 -8 -52 -11 -66 -6
-31 -6 -209 0 -260 15 -136 74 -340 107 -373 5 -6 9 -16 9 -24 0 -30 138 -220
219 -301 84 -85 206 -174 306 -224 79 -39 222 -85 320 -102 83 -15 266 -21
325 -11 14 3 42 7 62 10 428 64 801 391 926 811 37 125 46 188 46 335 0 271
-73 493 -229 702 -181 241 -421 388 -740 453 -33 7 -300 16 -306 11z"/>
<path d="M3315 5799 c-192 -33 -361 -103 -506 -210 -71 -53 -2447 -2418 -2536
-2526 -128 -153 -225 -367 -249 -548 -3 -27 -8 -53 -10 -57 -6 -9 -6 -237 -1
-263 3 -11 8 -42 11 -69 22 -157 105 -355 209 -496 56 -75 162 -184 222 -228
28 -20 52 -39 55 -42 10 -13 167 -96 220 -117 75 -30 181 -59 265 -73 72 -12
247 -14 326 -4 123 15 301 72 405 130 147 81 193 125 1425 1357 677 677 1249
1255 1273 1286 106 139 181 305 216 477 23 111 31 288 18 369 -5 28 -10 61
-12 75 -18 126 -93 312 -173 433 -253 381 -713 582 -1158 506z"/>
</g>
</svg>
