<svg id="Layer_1" data-name="Layer 1" xmlns="http://www.w3.org/2000/svg" viewBox="0 0 283.46 368.5"><defs><style>.cls-1{fill:#010101;}</style></defs><title>Artboard 1</title><path class="cls-1" d="M107.89,118.36a29.2,29.2,0,0,0-41.17,0L8.49,176.58a29.21,29.21,0,0,0,0,41.18h0a29.2,29.2,0,0,0,41.17,0l58.23-58.23a29.2,29.2,0,0,0,0-41.17Z"/><path class="cls-1" d="M15.41,107.89a29.2,29.2,0,0,0,41.17,0L114.8,49.66a29.18,29.18,0,0,0,0-41.17h0a29.2,29.2,0,0,0-41.17,0L15.41,66.72a29.2,29.2,0,0,0,0,41.17Z"/><circle class="cls-1" cx="254.35" cy="113.12" r="29.11"/><circle class="cls-1" cx="254.35" cy="29.11" r="29.11"/><rect class="cls-1" x="152.44" width="58.29" height="226.25" rx="29.15"/><path class="cls-1" d="M13.13,341.59l5.71-9.25c3.64,3.43,11.12,6.86,17.35,6.86,5.72,0,8.42-2.28,8.42-5.4,0-8.31-29.82-1.56-29.82-21.3,0-8.42,7.38-15.79,20.57-15.79a32,32,0,0,1,20.26,6.85l-5.3,9c-3-3.22-8.73-5.82-14.85-5.82-4.78,0-7.9,2.19-7.9,5,0,7.48,29.72,1.25,29.72,21.51,0,9.14-7.8,16.11-21.72,16.11C26.84,349.39,18.43,346.48,13.13,341.59Z"/><path class="cls-1" d="M72.56,348.14V309.49H64.24V298h8.32v-2.7c0-10.7,6.85-17.45,16.93-17.45,4.78,0,9.87,1.24,13.09,4.67l-5,7.79a7.37,7.37,0,0,0-5.51-2.07c-3.64,0-6.23,2.39-6.23,7.06V298H96v11.54H85.86v38.65Z"/><path class="cls-1" d="M143.83,348.14v-7.48a21.13,21.13,0,0,1-16.93,8.73c-13.09,0-22.34-10-22.34-26.29,0-16.11,9.25-26.39,22.34-26.39a21,21,0,0,1,16.93,8.83V278.83h7.8v69.31Zm0-13.72V311.77a18.64,18.64,0,0,0-15-8.1c-10.18,0-16.21,8.31-16.21,19.43s6,19.32,16.21,19.32C135,342.42,141.13,338.79,143.83,334.42Z"/><path class="cls-1" d="M206.18,348.14v-7.48a21.13,21.13,0,0,1-16.94,8.73c-13.09,0-22.34-10-22.34-26.29,0-16.11,9.25-26.39,22.34-26.39a21,21,0,0,1,16.94,8.83V298H214v50.19Zm0-13.72V311.77a18.66,18.66,0,0,0-15-8.1C181,303.67,175,312,175,323.1s6,19.32,16.21,19.32C197.34,342.42,203.48,338.79,206.18,334.42Z"/><path class="cls-1" d="M230.59,360.71a12,12,0,0,0,4.26.83c3.43,0,5.72-1.14,7.49-5.3l3.32-7.58-21-50.71h8.52l16.63,41.15L266.54,298H275l-25.14,60.37c-3,7.27-8.11,10.08-14.76,10.18a24,24,0,0,1-5.61-.72Z"/></svg>