<?xml version="1.0" encoding="utf-8"?>
<!-- Generator: Adobe Illustrator 16.0.3, SVG Export Plug-In . SVG Version: 6.00 Build 0)  -->
<!DOCTYPE svg PUBLIC "-//W3C//DTD SVG 1.1//EN" "http://www.w3.org/Graphics/SVG/1.1/DTD/svg11.dtd">
<svg version="1.1" xmlns="http://www.w3.org/2000/svg" xmlns:xlink="http://www.w3.org/1999/xlink" x="0px" y="0px" width="623.6px"
	 height="255.1px" viewBox="0 0 623.6 255.1" style="enable-background:new 0 0 623.6 255.1;" xml:space="preserve">
<style type="text/css">
<![CDATA[
	.st0{fill:#F05A22;}
	.st1{fill:#FFFFFF;}
]]>
</style>
<g id="BG">
	<rect class="st1" width="623.6" height="255.1"/>
</g>
<g id="Logo">
	<g>
		<g>
			<g>
				<path d="M580.2,40.2v-14h6.2c1.3,0,2.2,0.1,2.8,0.4c0.7,0.3,1.1,0.7,1.5,1.4s0.6,1.4,0.6,2.1c0,1-0.3,1.8-1,2.5
					s-1.7,1.1-2.9,1.3c0.6,0.3,0.8,0.4,1.1,0.7c0.6,0.6,1.1,1.1,1.5,1.8l2.5,3.7h-2.4l-1.8-2.9c-0.6-0.8-1-1.5-1.4-2s-0.7-0.7-1-1
					c-0.3-0.1-0.6-0.3-0.8-0.4c-0.3,0-0.6,0-1,0h-2.1V40h-2L580.2,40.2L580.2,40.2z M581.9,32.4h4c0.8,0,1.5-0.1,2-0.3
					c0.4-0.1,0.8-0.4,1.1-0.8s0.4-0.8,0.4-1.3c0-0.7-0.3-1.3-0.7-1.7s-1.3-0.7-2.2-0.7h-4.4v4.7L581.9,32.4L581.9,32.4z"/>
			</g>
			<g>
				<path d="M585.3,47.8c-7.9,0-14.4-6.5-14.4-14.4c0-7.9,6.4-14.3,14.4-14.3c7.9,0,14.4,6.5,14.4,14.4S593.2,47.8,585.3,47.8z
					 M585.3,20.8c-6.9,0-12.6,5.7-12.6,12.6c0,6.9,5.7,12.6,12.6,12.6c6.9,0,12.6-5.7,12.6-12.6C597.9,26.6,592.2,20.8,585.3,20.8z"
					/>
			</g>
		</g>
		<g>
			<g>
				<g>
					<rect x="23.9" y="34.6" width="169.6" height="169.6"/>
					<rect x="40.3" y="51.1" class="st1" width="136.8" height="136.8"/>
					<rect x="94.2" y="104.4" width="130.5" height="130.5"/>
					<rect x="109.7" y="119.9" class="st0" width="99.2" height="99.2"/>
				</g>
				<g>
					<path d="M370.8,195.8c-1.3,3.2-3.2,5.9-5.5,8.6c-2.5,2.5-5.4,4.7-8.6,6.5c-3.2,1.8-6.8,3.2-10.4,4.3c-3.7,1.1-7.5,1.5-11.3,1.5
						c-5.4,0-10.7-1.1-15.5-3.2c-4.8-2.1-9.3-5-13.2-8.8c-3.9-3.7-7.1-8.2-9.5-13.3c-2.2-4.7-3.6-10-4.3-15.8h107.7l0.3-1.1
						c0.1-1,0.3-2.1,0.4-3.7c0.1-1.5,0.1-3.2,0.1-5.1c0-8.8-1.5-17.4-4.7-25.6c-3.2-8.2-7.6-15.5-13.4-21.6
						c-5.8-6.2-12.9-11.2-21.1-15c-8.2-3.7-17.5-5.5-27.4-5.5s-19.2,1.8-27.4,5.5c-8.3,3.6-15.5,8.6-21.5,15
						c-5.9,6.2-10.7,13.6-14,21.9c-3.4,8.3-5,17.2-5,26.5c0,9.3,1.7,18.2,5,26.6c3.4,8.3,7.9,15.8,13.9,22.1s13.2,11.2,21.3,15
						c8.3,3.6,17.6,5.5,27.4,5.5c6.5,0,13-0.8,19.1-2.5s11.6-4,16.7-7.1c5-2.9,9.4-6.5,13.3-10.6c3.8-4,6.9-8.6,9.2-13.6l0.7-1.5
						l-21.8-6L370.8,195.8z M334.4,117.4c5.5,0,11,1,16,3.1c5,2,9.5,4.8,13.2,8.3c3.7,3.5,6.9,7.9,9.5,12.9
						c2.2,4.5,3.7,9.7,4.3,15.1h-85.3c0.6-5.4,2-10.4,4.1-15c2.4-5,5.4-9.3,9.2-12.9s8.2-6.4,13.2-8.5
						C323.3,118.4,328.7,117.4,334.4,117.4z"/>
					<polygon points="572,53 413.7,53 413.7,76.6 522.7,76.6 395.5,234.6 555.3,234.6 555.3,211 444.8,211 					"/>
				</g>
			</g>
		</g>
	</g>
</g>
</svg>
